<?xml version="1.0" encoding="utf-8"?>
<!-- Generator: Adobe Illustrator 27.5.0, SVG Export Plug-In . SVG Version: 6.00 Build 0)  -->
<svg version="1.1" xmlns="http://www.w3.org/2000/svg" xmlns:xlink="http://www.w3.org/1999/xlink" x="0px" y="0px"
	 viewBox="0 0 258.166 258.166" style="enable-background:new 0 0 258.166 258.166;" xml:space="preserve">
<g id="BG">
	<g>
		<g>
			<g>
				<defs>
					<rect id="SVGID_1_" x="-0.745" y="-0.745" width="259.657" height="259.657"/>
				</defs>
				<clipPath id="SVGID_00000017493162593865664390000006723306139340343438_">
					<use xlink:href="#SVGID_1_"  style="overflow:visible;"/>
				</clipPath>
				
					<rect x="-0.745" y="-0.745" style="clip-path:url(#SVGID_00000017493162593865664390000006723306139340343438_);fill:#DCDCDC;" width="259.657" height="259.657"/>
				<path style="clip-path:url(#SVGID_00000017493162593865664390000006723306139340343438_);fill:#DCDCDC;" d="M132.211,86.98
					c-47.528,0-90.556-9.718-121.702-25.43C6.615,59.586,2.908,57.528-0.6,55.384c-1.754-1.072-3.458-2.166-5.109-3.28h3.964v-53.85
					h261.657v57.13h5.109c-3.508,2.144-7.215,4.202-11.108,6.166C222.766,77.262,179.738,86.98,132.211,86.98z"/>
				<path style="clip-path:url(#SVGID_00000017493162593865664390000006723306139340343438_);fill:#DDDDDD;" d="M132.211,84.482
					c-46.16,0-87.951-9.438-118.201-24.698C6.447,55.969-0.394,51.79-6.402,47.304h4.657V-1.745h261.657v55.541h1.289
					c-3.407,2.082-7.008,4.081-10.789,5.988C220.161,75.044,178.371,84.482,132.211,84.482z"/>
				<path style="clip-path:url(#SVGID_00000017493162593865664390000006723306139340343438_);fill:#DEDEDE;" d="M132.211,81.985
					c-44.793,0-85.346-9.159-114.7-23.967c-7.339-3.702-13.977-7.757-19.807-12.11h0.551V-1.745h261.657v47.653h6.806
					c-5.83,4.353-12.469,8.408-19.807,12.11C217.556,72.826,177.004,81.985,132.211,81.985z"/>
				<path style="clip-path:url(#SVGID_00000017493162593865664390000006723306139340343438_);fill:#DFDFDF;" d="M132.211,79.487
					c-43.426,0-82.741-8.879-111.199-23.235c-7.115-3.589-13.551-7.52-19.203-11.741c-2.826-2.11-5.456-4.293-7.877-6.541h4.323
					V-1.745h261.657v46.256h2.701c-5.652,4.22-12.088,8.152-19.203,11.741C214.951,70.608,175.637,79.487,132.211,79.487z"/>
				<path style="clip-path:url(#SVGID_00000017493162593865664390000006723306139340343438_);fill:#E0E0E0;" d="M132.211,76.99
					c-42.059,0-80.136-8.6-107.698-22.504C10.731,47.534-0.421,39.256-8.128,30.064h6.383V-1.745h261.657V36.78h6.224
					c-2.345,2.177-4.892,4.291-7.629,6.335c-5.474,4.088-11.708,7.895-18.598,11.371C212.346,68.39,174.269,76.99,132.211,76.99z"/>
				<path style="clip-path:url(#SVGID_00000017493162593865664390000006723306139340343438_);fill:#E1E1E1;" d="M132.211,74.492
					c-40.692,0-77.531-8.32-104.197-21.772C14.68,45.994,3.89,37.985-3.566,29.091h1.821V-1.745h261.657v37.335h1.871
					c-2.268,2.107-4.733,4.152-7.381,6.129c-5.296,3.955-11.327,7.638-17.994,11.001C209.741,66.172,172.902,74.492,132.211,74.492z
					"/>
				<path style="clip-path:url(#SVGID_00000017493162593865664390000006723306139340343438_);fill:#E2E2E2;" d="M132.211,71.994
					c-39.324,0-74.926-8.041-100.696-21.041c-12.885-6.5-23.313-14.24-30.519-22.834c-3.603-4.297-6.401-8.808-8.298-13.485h5.557
					v-16.38h261.657v29.865h3.514c-7.206,8.594-17.634,16.334-30.519,22.834C207.136,63.954,171.535,71.994,132.211,71.994z"/>
				<path style="clip-path:url(#SVGID_00000017493162593865664390000006723306139340343438_);fill:#E3E3E3;" d="M132.211,69.497
					c-75.914,0-137.455-31.044-137.455-69.34h3.499v-1.902h261.657v15.877h6.961c-1.831,4.514-4.531,8.868-8.009,13.016
					c-6.956,8.296-17.02,15.766-29.458,22.04C204.531,61.736,170.168,69.497,132.211,69.497z"/>
				<path style="clip-path:url(#SVGID_00000017493162593865664390000006723306139340343438_);fill:#E5E5E5;" d="M132.211,66.999
					c-73.18,0-132.504-29.926-132.504-66.842c0-2.307,0.232-4.587,0.684-6.834v4.932h259.521v1.902h4.803
					C264.714,37.073,205.39,66.999,132.211,66.999z"/>
				<path style="clip-path:url(#SVGID_00000017493162593865664390000006723306139340343438_);fill:#E6E6E6;" d="M132.211,64.502
					C61.765,64.502,4.658,35.693,4.658,0.157c0-2.221,0.223-4.416,0.658-6.579v4.677h253.788v-4.677
					c0.436,2.163,0.659,4.358,0.659,6.579C259.763,35.693,202.656,64.502,132.211,64.502z"/>
				<path style="clip-path:url(#SVGID_00000017493162593865664390000006723306139340343438_);fill:#E7E7E7;" d="M132.211,62.004
					c-67.711,0-122.602-27.69-122.602-61.847c0-2.135,0.215-4.244,0.633-6.324v4.421h243.938v-4.421
					c0.419,2.079,0.633,4.189,0.633,6.324C254.812,34.314,199.922,62.004,132.211,62.004z"/>
				<path style="clip-path:url(#SVGID_00000017493162593865664390000006723306139340343438_);fill:#E8E8E8;" d="M132.211,59.506
					C67.234,59.506,14.56,32.935,14.56,0.157c0-2.049,0.206-4.073,0.607-6.068v4.166h234.087v-4.166
					c0.402,1.995,0.607,4.02,0.607,6.068C249.861,32.935,197.187,59.506,132.211,59.506z"/>
				<path style="clip-path:url(#SVGID_00000017493162593865664390000006723306139340343438_);fill:#E9E9E9;" d="M132.211,57.009
					c-62.242,0-112.7-25.453-112.7-56.852c0-1.962,0.197-3.902,0.582-5.813v3.911h224.235v-3.911
					c0.385,1.911,0.582,3.85,0.582,5.813C244.91,31.555,194.453,57.009,132.211,57.009z"/>
				<path style="clip-path:url(#SVGID_00000017493162593865664390000006723306139340343438_);fill:#EAEAEA;" d="M132.211,54.511
					c-59.508,0-107.749-24.335-107.749-54.354c0-1.876,0.188-3.73,0.556-5.557v3.655h214.384V-5.4
					c0.368,1.827,0.556,3.681,0.556,5.557C239.959,30.176,191.718,54.511,132.211,54.511z"/>
				<path style="clip-path:url(#SVGID_00000017493162593865664390000006723306139340343438_);fill:#EBEBEB;" d="M132.211,52.014
					c-56.773,0-102.797-23.217-102.797-51.857c0-1.79,0.18-3.559,0.531-5.302v3.4h204.533v-3.4c0.351,1.743,0.531,3.512,0.531,5.302
					C235.008,28.796,188.984,52.014,132.211,52.014z"/>
				<path style="clip-path:url(#SVGID_00000017493162593865664390000006723306139340343438_);fill:#ECECEC;" d="M132.211,49.516
					c-54.039,0-97.846-22.099-97.846-49.359c0-1.704,0.171-3.387,0.505-5.047v3.145h194.682V-4.89
					c0.334,1.659,0.505,3.343,0.505,5.047C230.057,27.417,186.25,49.516,132.211,49.516z"/>
				<path style="clip-path:url(#SVGID_00000017493162593865664390000006723306139340343438_);fill:#EDEDED;" d="M132.211,47.018
					c-51.305,0-92.895-20.981-92.895-46.861c0-1.618,0.162-3.216,0.48-4.791v2.889h184.831v-2.889
					c0.317,1.575,0.48,3.174,0.48,4.791C225.106,26.038,183.515,47.018,132.211,47.018z"/>
			</g>
		</g>
		
			<radialGradient id="SVGID_00000000914608898580633170000016123630915520083872_" cx="-26.8927" cy="-1255.9329" r="74.0405" gradientTransform="matrix(1.5308 0 0 0.1742 170.2505 440.2678)" gradientUnits="userSpaceOnUse">
			<stop  offset="0" style="stop-color:#A4A4A4"/>
			<stop  offset="1" style="stop-color:#DCDCDC"/>
		</radialGradient>
		
			<ellipse style="fill:url(#SVGID_00000000914608898580633170000016123630915520083872_);" cx="129.083" cy="221.484" rx="113.355" ry="12.896"/>
	</g>
</g>
<g id="Design">
	<g>
		<polygon style="fill:#C7C7C7;" points="47.662,66.749 54.412,89.124 52.162,87.249 45.537,66.249 		"/>
		<polygon style="fill:#BABABA;" points="198.662,82.874 191.474,100.624 191.974,100.811 200.162,82.874 		"/>
		<path style="fill:#FFFFFF;" d="M43.412,201.87c-0.987,0-1.94-0.418-2.61-1.168c-0.812-0.909-1.093-2.176-0.74-3.344l20.343-67.402
			L38.096,63.957c-0.405-1.198-0.132-2.521,0.713-3.461c0.845-0.94,2.132-1.353,3.365-1.076l88.906,19.835l73.208-2.591
			c1.168-0.035,2.318,0.522,2.997,1.5c0.679,0.977,0.816,2.231,0.363,3.331l-21.954,53.283l21.457,52.552
			c0.477,1.167,0.289,2.499-0.491,3.488c-0.779,0.991-2.031,1.489-3.276,1.295l-57.921-8.816L44.04,201.813
			C43.831,201.851,43.62,201.87,43.412,201.87z M46.718,67.605l20.676,61.169c0.233,0.69,0.245,1.436,0.035,2.133l-19.012,62.991
			l96.366-17.593c0.381-0.069,0.772-0.073,1.155-0.017l52.401,7.976l-19.668-48.169c-0.348-0.852-0.346-1.806,0.004-2.656
			l20.431-49.587l-68.226,2.414c-0.3,0.009-0.596-0.018-0.886-0.082L46.718,67.605z"/>
		
			<linearGradient id="SVGID_00000132800875640309934990000012732819594814388905_" gradientUnits="userSpaceOnUse" x1="133.9526" y1="81.899" x2="182.6388" y2="79.9067">
			<stop  offset="0.3528" style="stop-color:#DCDCDC"/>
			<stop  offset="1" style="stop-color:#FFFFFF"/>
		</linearGradient>
		<path style="fill:url(#SVGID_00000132800875640309934990000012732819594814388905_);" d="M124.398,77.764l-0.373,7.089
			l5.969,1.332c0.291,0.064,0.586,0.091,0.886,0.082l51.369-1.818l2.913-5.7l-54.262,1.92L124.398,77.764z"/>
		
			<linearGradient id="SVGID_00000041983845129383236430000006187209737199461248_" gradientUnits="userSpaceOnUse" x1="68.5087" y1="68.5031" x2="95.6265" y2="74.0053">
			<stop  offset="0" style="stop-color:#FFFFFF"/>
			<stop  offset="0.6472" style="stop-color:#DCDCDC"/>
		</linearGradient>
		<polygon style="opacity:0.7;fill:url(#SVGID_00000041983845129383236430000006187209737199461248_);" points="79.229,73.42 
			107.037,79.624 104.418,73.306 66.287,64.749 		"/>
		
			<linearGradient id="SVGID_00000062905827798608363440000002235165912829756599_" gradientUnits="userSpaceOnUse" x1="67.679" y1="193.8005" x2="121.179" y2="184.3004">
			<stop  offset="0" style="stop-color:#FFFFFF"/>
			<stop  offset="0.4799" style="stop-color:#DCDCDC"/>
		</linearGradient>
		<polygon style="fill:url(#SVGID_00000062905827798608363440000002235165912829756599_);" points="123.034,180.276 66.534,190.591 
			68.083,197.424 122.931,187.41 		"/>
		
			<linearGradient id="SVGID_00000062902062012347435620000012122581918813065369_" gradientUnits="userSpaceOnUse" x1="191.6578" y1="189.0993" x2="161.0176" y2="180.5018">
			<stop  offset="0.2157" style="stop-color:#FFFFFF"/>
			<stop  offset="1" style="stop-color:#C9AA9B"/>
		</linearGradient>
		<polygon style="opacity:0.6;fill:url(#SVGID_00000062902062012347435620000012122581918813065369_);" points="181.89,181.761 
			162.637,178.83 156.924,183.951 192.912,189.582 		"/>
		
			<linearGradient id="SVGID_00000155108236326474298490000012620891193577079995_" gradientUnits="userSpaceOnUse" x1="196.5124" y1="183.3109" x2="201.1076" y2="168.0742">
			<stop  offset="0.2157" style="stop-color:#FFFFFF"/>
			<stop  offset="1" style="stop-color:#C9AA9B"/>
		</linearGradient>
		<polygon style="opacity:0.7;fill:url(#SVGID_00000155108236326474298490000012620891193577079995_);" points="197.405,165.856 
			191.693,167.988 198.339,184.264 205.349,185.311 		"/>
		<polygon style="fill:#FF2D00;" points="157.245,194.915 107.912,202.249 120.662,179.999 		"/>
		
			<linearGradient id="SVGID_00000044859519647723185940000005180363857501055127_" gradientUnits="userSpaceOnUse" x1="47.7027" y1="185.8902" x2="54.8595" y2="162.1594">
			<stop  offset="0.2157" style="stop-color:#FFFFFF"/>
			<stop  offset="1" style="stop-color:#C9AA9B"/>
		</linearGradient>
		<polygon style="fill:url(#SVGID_00000044859519647723185940000005180363857501055127_);" points="58.209,161.454 52.078,160.999 
			44.654,185.598 50.507,186.972 		"/>
		<polygon style="fill:#BF0000;" points="28.412,157.915 157.245,194.915 174.412,164.582 		"/>
		<g>
			<g>
				<defs>
					<path id="SVGID_00000049182493297335513910000007032341536118375579_" d="M27.695,84.666l46.202,103.6
						c0.703,1.576,2.349,2.511,4.062,2.307l113.106-13.419c1.264-0.15,2.377-0.901,2.989-2.017l35.582-64.831
						c1.335-2.432-0.195-5.444-2.945-5.802L31.801,79.155C28.75,78.758,26.442,81.856,27.695,84.666z"/>
				</defs>
				<clipPath id="SVGID_00000039122835018203534300000007871884442659097760_">
					<use xlink:href="#SVGID_00000049182493297335513910000007032341536118375579_"  style="overflow:visible;"/>
				</clipPath>
				
					<rect x="26.442" y="78.758" style="clip-path:url(#SVGID_00000039122835018203534300000007871884442659097760_);fill:#2D2D2D;" width="204.528" height="112.019"/>
				<path style="clip-path:url(#SVGID_00000039122835018203534300000007871884442659097760_);fill:#2D2D2D;" d="M128.019,189.819
					c-34.663,0-66.045-11.312-88.761-29.6c-5.679-4.572-10.816-9.58-15.328-14.957h1.512V77.758H231.97v67.504h0.138
					c-4.512,5.376-9.649,10.385-15.328,14.957C194.064,178.508,162.682,189.819,128.019,189.819z"/>
				<path style="clip-path:url(#SVGID_00000039122835018203534300000007871884442659097760_);fill:#2E2E2E;" d="M128.019,187.563
					c-33.89,0-64.571-11.059-86.78-28.939c-5.552-4.47-10.575-9.366-14.986-14.623c-2.205-2.628-4.258-5.346-6.147-8.146h5.336
					V77.758H231.97v58.096h3.961c-1.889,2.8-3.942,5.518-6.147,8.146c-4.411,5.256-9.434,10.153-14.986,14.623
					C192.59,176.504,161.908,187.563,128.019,187.563z"/>
				<path style="clip-path:url(#SVGID_00000039122835018203534300000007871884442659097760_);fill:#2F2F2F;" d="M128.019,185.307
					c-33.116,0-63.096-10.807-84.798-28.278c-5.425-4.368-10.333-9.152-14.644-14.289c-2.155-2.568-4.161-5.224-6.007-7.96h2.872
					V77.758H231.97v48.581h6.547c-6.068,11.551-14.85,21.953-25.701,30.689C191.115,174.501,161.135,185.307,128.019,185.307z"/>
				<path style="clip-path:url(#SVGID_00000039122835018203534300000007871884442659097760_);fill:#303030;" d="M128.019,183.051
					c-32.342,0-61.622-10.554-82.817-27.618c-10.597-8.532-19.173-18.691-25.1-29.972h5.34V77.758H231.97v47.703h3.965
					c-5.927,11.281-14.503,21.44-25.1,29.972C189.641,172.497,160.361,183.051,128.019,183.051z"/>
				<path style="clip-path:url(#SVGID_00000039122835018203534300000007871884442659097760_);fill:#313131;" d="M128.019,180.795
					c-31.568,0-60.148-10.302-80.835-26.957c-10.344-8.328-18.715-18.244-24.499-29.255h2.758V77.758H231.97v46.825h1.383
					c-5.785,11.011-14.156,20.927-24.499,29.255C188.167,170.493,159.587,180.795,128.019,180.795z"/>
				<path style="clip-path:url(#SVGID_00000039122835018203534300000007871884442659097760_);fill:#323232;" d="M128.019,178.539
					c-30.794,0-58.673-10.049-78.854-26.296c-10.09-8.124-18.256-17.796-23.899-28.538h0.176V77.758H231.97v29.094h5.299
					c-1.485,5.844-3.676,11.482-6.498,16.853c-5.643,10.741-13.809,20.414-23.899,28.538
					C186.692,168.49,158.813,178.539,128.019,178.539z"/>
				<path style="clip-path:url(#SVGID_00000039122835018203534300000007871884442659097760_);fill:#333333;" d="M128.019,176.283
					c-60.041,0-108.714-39.186-108.714-87.524h6.137v-11H231.97v11h4.762C236.732,137.097,188.06,176.283,128.019,176.283z"/>
				<path style="clip-path:url(#SVGID_00000039122835018203534300000007871884442659097760_);fill:#343434;" d="M128.019,174.027
					c-58.493,0-105.911-38.176-105.911-85.268h3.334v-11h206.337v-6.184c1.411,5.551,2.152,11.298,2.152,17.184
					C233.93,135.851,186.512,174.027,128.019,174.027z"/>
				<path style="clip-path:url(#SVGID_00000039122835018203534300000007871884442659097760_);fill:#353535;" d="M128.019,171.771
					c-56.946,0-103.109-37.166-103.109-83.012c0-5.731,0.721-11.326,2.095-16.73v5.729h202.029v-5.729
					c1.374,5.404,2.095,10.999,2.095,16.73C231.128,134.605,184.964,171.771,128.019,171.771z"/>
				<path style="clip-path:url(#SVGID_00000039122835018203534300000007871884442659097760_);fill:#363636;" d="M128.019,169.514
					c-55.398,0-100.307-36.156-100.307-80.756c0-5.575,0.702-11.018,2.038-16.275v5.275h196.538v-5.275
					c1.336,5.257,2.038,10.7,2.038,16.275C228.326,133.359,183.417,169.514,128.019,169.514z"/>
				<path style="clip-path:url(#SVGID_00000039122835018203534300000007871884442659097760_);fill:#373737;" d="M128.019,167.258
					c-53.85,0-97.505-35.146-97.505-78.5c0-5.419,0.682-10.71,1.981-15.82v4.82h191.047v-4.82c1.299,5.11,1.981,10.401,1.981,15.82
					C225.523,132.113,181.869,167.258,128.019,167.258z"/>
				<path style="clip-path:url(#SVGID_00000039122835018203534300000007871884442659097760_);fill:#383838;" d="M128.019,165.002
					c-52.303,0-94.702-34.135-94.702-76.244c0-5.264,0.662-10.402,1.924-15.366v4.365h185.557v-4.365
					c1.261,4.963,1.924,10.102,1.924,15.366C222.721,130.867,180.321,165.002,128.019,165.002z"/>
				<path style="clip-path:url(#SVGID_00000039122835018203534300000007871884442659097760_);fill:#393939;" d="M128.019,162.746
					c-50.755,0-91.9-33.125-91.9-73.987c0-5.108,0.643-10.095,1.867-14.911v3.911h180.066v-3.911
					c1.224,4.816,1.867,9.803,1.867,14.911C219.919,129.621,178.774,162.746,128.019,162.746z"/>
				<path style="clip-path:url(#SVGID_00000039122835018203534300000007871884442659097760_);fill:#3A3A3A;" d="M128.019,160.49
					c-49.207,0-89.098-32.115-89.098-71.731c0-4.952,0.623-9.787,1.81-14.456v3.456h174.575v-3.456
					c1.187,4.67,1.81,9.504,1.81,14.456C217.117,128.375,177.226,160.49,128.019,160.49z"/>
				<path style="clip-path:url(#SVGID_00000039122835018203534300000007871884442659097760_);fill:#3B3B3B;" d="M128.019,158.234
					c-47.66,0-86.296-31.105-86.296-69.475c0-4.796,0.604-9.479,1.753-14.002v3.001h169.085v-3.001
					c1.15,4.523,1.753,9.205,1.753,14.002C214.314,127.129,175.678,158.234,128.019,158.234z"/>
				<path style="clip-path:url(#SVGID_00000039122835018203534300000007871884442659097760_);fill:#3C3C3C;" d="M128.019,155.978
					c-46.112,0-83.493-30.095-83.493-67.219c0-4.641,0.584-9.171,1.696-13.547v2.547h163.594v-2.547
					c1.112,4.376,1.696,8.907,1.696,13.547C211.512,125.883,174.131,155.978,128.019,155.978z"/>
				<path style="clip-path:url(#SVGID_00000039122835018203534300000007871884442659097760_);fill:#3D3D3D;" d="M128.019,153.722
					c-44.564,0-80.691-29.085-80.691-64.963c0-4.485,0.564-8.863,1.639-13.092v2.092H207.07v-2.092
					c1.075,4.229,1.639,8.608,1.639,13.092C208.71,124.637,172.583,153.722,128.019,153.722z"/>
				<path style="clip-path:url(#SVGID_00000039122835018203534300000007871884442659097760_);fill:#3E3E3E;" d="M128.019,151.466
					c-43.017,0-77.889-28.075-77.889-62.707c0-4.329,0.545-8.556,1.582-12.638v1.637h152.612v-1.637
					c1.038,4.082,1.582,8.309,1.582,12.638C205.907,123.391,171.036,151.466,128.019,151.466z"/>
				<path style="clip-path:url(#SVGID_00000039122835018203534300000007871884442659097760_);fill:#404040;" d="M128.019,149.21
					c-41.469,0-75.086-27.065-75.086-60.451c0-4.173,0.525-8.248,1.526-12.183v1.183H201.58v-1.183c1,3.935,1.525,8.01,1.525,12.183
					C203.105,122.145,169.488,149.21,128.019,149.21z"/>
				<path style="clip-path:url(#SVGID_00000039122835018203534300000007871884442659097760_);fill:#414141;" d="M128.019,146.954
					c-39.921,0-72.284-26.055-72.284-58.195c0-4.018,0.506-7.94,1.469-11.728v0.728h141.631V77.03
					c0.963,3.788,1.468,7.711,1.468,11.728C200.303,120.899,167.94,146.954,128.019,146.954z"/>
				<path style="clip-path:url(#SVGID_00000039122835018203534300000007871884442659097760_);fill:#424242;" d="M128.019,144.698
					c-38.374,0-69.482-25.045-69.482-55.939c0-3.862,0.486-7.632,1.412-11.274v0.273h136.14v-0.273
					c0.926,3.642,1.412,7.412,1.412,11.274C197.501,119.653,166.393,144.698,128.019,144.698z"/>
				<path style="clip-path:url(#SVGID_00000039122835018203534300000007871884442659097760_);fill:#434343;" d="M128.019,142.441
					c-36.826,0-66.68-24.035-66.68-53.683c0-3.706,0.467-7.324,1.355-10.819c0.444-1.747,0.994-3.464,1.643-5.145v4.963h127.363
					v-4.963c0.649,1.681,1.199,3.397,1.643,5.145c0.888,3.495,1.355,7.113,1.355,10.819
					C194.698,118.407,164.845,142.441,128.019,142.441z"/>
				<path style="clip-path:url(#SVGID_00000039122835018203534300000007871884442659097760_);fill:#444444;" d="M128.019,140.185
					c-35.278,0-63.877-23.024-63.877-51.427c0-3.55,0.447-7.017,1.298-10.364c0.425-1.674,0.952-3.318,1.574-4.928v4.292h122.011
					v-4.292c0.622,1.61,1.149,3.255,1.574,4.928c0.851,3.348,1.298,6.814,1.298,10.364
					C191.896,117.161,163.297,140.185,128.019,140.185z"/>
				<path style="clip-path:url(#SVGID_00000039122835018203534300000007871884442659097760_);fill:#454545;" d="M128.019,137.929
					c-33.731,0-61.075-22.014-61.075-49.171c0-3.395,0.427-6.709,1.241-9.91c0.407-1.6,0.91-3.173,1.505-4.712v3.621h116.658v-3.621
					c0.595,1.54,1.098,3.112,1.505,4.712c0.814,3.201,1.241,6.515,1.241,9.91C189.094,115.915,161.749,137.929,128.019,137.929z"/>
				<path style="clip-path:url(#SVGID_00000039122835018203534300000007871884442659097760_);fill:#464646;" d="M128.019,135.673
					c-32.183,0-58.273-21.004-58.273-46.914c0-3.239,0.408-6.401,1.184-9.455c0.388-1.527,0.868-3.027,1.436-4.496v2.951h111.306
					v-2.951c0.568,1.469,1.048,2.969,1.436,4.496c0.776,3.054,1.184,6.216,1.184,9.455
					C186.291,114.669,160.202,135.673,128.019,135.673z"/>
				<path style="clip-path:url(#SVGID_00000039122835018203534300000007871884442659097760_);fill:#474747;" d="M128.019,133.417
					c-30.635,0-55.47-19.994-55.47-44.658c0-6.166,1.552-12.04,4.359-17.383v6.383H179.13v-6.383
					c2.807,5.343,4.359,11.217,4.359,17.383C183.489,113.423,158.654,133.417,128.019,133.417z"/>
				<path style="clip-path:url(#SVGID_00000039122835018203534300000007871884442659097760_);fill:#484848;" d="M128.019,131.161
					c-29.088,0-52.668-18.984-52.668-42.402c0-5.855,1.474-11.432,4.139-16.505v5.505h97.058v-5.505
					c2.665,5.073,4.139,10.65,4.139,16.505C180.687,112.177,157.107,131.161,128.019,131.161z"/>
				<path style="clip-path:url(#SVGID_00000039122835018203534300000007871884442659097760_);fill:#494949;" d="M128.019,128.905
					c-27.54,0-49.866-17.974-49.866-40.146c0-5.543,1.395-10.824,3.919-15.627v4.626h91.894v-4.626
					c2.523,4.803,3.919,10.084,3.919,15.627C177.885,110.931,155.559,128.905,128.019,128.905z"/>
				<path style="clip-path:url(#SVGID_00000039122835018203534300000007871884442659097760_);fill:#4A4A4A;" d="M128.019,126.649
					c-25.993,0-47.063-16.964-47.063-37.89c0-5.232,1.317-10.215,3.698-14.749v3.748h86.73V74.01
					c2.382,4.533,3.699,9.517,3.699,14.749C175.082,109.685,154.011,126.649,128.019,126.649z"/>
				<path style="clip-path:url(#SVGID_00000039122835018203534300000007871884442659097760_);fill:#4B4B4B;" d="M128.019,124.393
					c-24.445,0-44.261-15.954-44.261-35.634c0-4.92,1.239-9.607,3.478-13.87v2.87h81.566v-2.87c2.24,4.263,3.478,8.95,3.478,13.87
					C172.28,108.439,152.464,124.393,128.019,124.393z"/>
				<path style="clip-path:url(#SVGID_00000039122835018203534300000007871884442659097760_);fill:#4C4C4C;" d="M128.019,122.137
					c-22.897,0-41.459-14.944-41.459-33.378c0-4.609,1.16-8.999,3.258-12.992v1.992h76.402v-1.992
					c2.098,3.993,3.258,8.384,3.258,12.992C169.478,107.193,150.916,122.137,128.019,122.137z"/>
				<path style="clip-path:url(#SVGID_00000039122835018203534300000007871884442659097760_);fill:#4D4D4D;" d="M128.019,119.881
					c-21.35,0-38.657-13.934-38.657-31.122c0-4.297,1.082-8.391,3.038-12.114v1.114h71.238v-1.114
					c1.956,3.723,3.038,7.817,3.038,12.114C166.676,105.947,149.368,119.881,128.019,119.881z"/>
				<path style="clip-path:url(#SVGID_00000039122835018203534300000007871884442659097760_);fill:#4E4E4E;" d="M128.019,117.625
					c-19.802,0-35.854-12.924-35.854-28.866c0-3.986,1.003-7.782,2.818-11.236v0.236h66.074v-0.236
					c1.814,3.454,2.818,7.25,2.818,11.236C163.873,104.701,147.821,117.625,128.019,117.625z"/>
				<path style="clip-path:url(#SVGID_00000039122835018203534300000007871884442659097760_);fill:#4F4F4F;" d="M128.019,115.369
					c-18.254,0-33.052-11.914-33.052-26.61c0-3.674,0.925-7.174,2.597-10.358c0.836-1.592,1.859-3.104,3.047-4.52v3.877h54.815
					v-3.877c1.188,1.416,2.211,2.928,3.047,4.52c1.673,3.184,2.597,6.684,2.597,10.358
					C161.071,103.455,146.273,115.369,128.019,115.369z"/>
				<path style="clip-path:url(#SVGID_00000039122835018203534300000007871884442659097760_);fill:#505050;" d="M128.019,113.113
					c-16.706,0-30.25-10.904-30.25-24.354c0-6.725,3.386-12.814,8.86-17.221v6.22h42.78v-6.22c5.474,4.407,8.86,10.495,8.86,17.221
					C158.269,102.209,144.725,113.113,128.019,113.113z"/>
				<path style="clip-path:url(#SVGID_00000039122835018203534300000007871884442659097760_);fill:#515151;" d="M128.019,110.856
					c-15.159,0-27.448-9.893-27.448-22.098c0-6.102,3.072-11.627,8.039-15.625v4.625h38.817v-4.625
					c4.967,3.999,8.039,9.523,8.039,15.625C155.466,100.963,143.178,110.856,128.019,110.856z"/>
			</g>
		</g>
		<path style="fill:#737373;" d="M212.326,137.936l13.573-25.224c0,0,1.846-3.305,1.846-4.399c0-1.187-0.986-1.739-1.63-1.823
			L31.85,81.141c-0.091-0.012-0.181-0.018-0.27-0.018c-0.644,0-1.245,0.332-1.605,0.89c-0.171,0.265-0.527,0.973-0.141,1.841
			l10.855,24.271c0.311,0.698-8.778-22.771-8.778-22.771c-0.567-1.311-0.447-1.963-0.276-2.228c0.36-0.558,1.08-0.583,2.022-0.503
			c0.088,0.008,0.179,0.006,0.27,0.018l191.509,24.989c1.255,0.378,1.096,1.495,0.576,2.62
			C225.471,111.417,212.326,137.936,212.326,137.936z"/>
		<polygon points="64.656,167.545 195.277,172.91 212.375,141.756 193.301,100.162 134.955,92.573 40.261,111.56 40.05,112.37 		"/>
		<polygon style="fill:#FF2D00;" points="42.412,104.749 185.412,81.249 226.912,173.249 28.412,157.915 		"/>
		<g>
			<polygon points="89.662,99.749 78.745,91.665 87.912,89.749 			"/>
			<polygon points="89.662,99.749 84.787,93.29 78.745,91.665 			"/>
		</g>
		<path d="M95.068,87.381l2.124,7.132c0.489,1.642,2.153,2.637,3.831,2.292l25.739-5.301L95.068,87.381z"/>
		<polygon style="fill:#BF0000;" points="61.501,160.471 196.385,170.891 212.557,141.425 193.983,100.25 124.657,91.233 
			42.412,104.749 40.273,112.87 		"/>
		<g>
			<g>
				<defs>
					<path id="SVGID_00000075851419627505184370000000242827965482869637_" d="M91.953,66.532l7.094,23.814
						c0.489,1.642,2.153,2.637,3.831,2.292l21.534-1.358l35.359-10.36c1.032-0.212,1.9-0.904,2.338-1.862l3.093-6.768
						c0.953-2.085-0.457-4.483-2.742-4.665L95.38,62.297C93.067,62.113,91.291,64.308,91.953,66.532z"/>
				</defs>
				<clipPath id="SVGID_00000017500888207246467180000015155069620219685282_">
					<use xlink:href="#SVGID_00000075851419627505184370000000242827965482869637_"  style="overflow:visible;"/>
				</clipPath>
				
					<rect x="91.291" y="62.113" style="clip-path:url(#SVGID_00000017500888207246467180000015155069620219685282_);fill:#2D2D2D;" width="74.863" height="30.87"/>
				<path style="clip-path:url(#SVGID_00000017500888207246467180000015155069620219685282_);fill:#2D2D2D;" d="M128.397,97.403
					c-22.285,0-40.352-14.545-40.352-32.487h2.245v-3.803h76.863v3.803h1.595C168.749,82.858,150.683,97.403,128.397,97.403z"/>
				<path style="clip-path:url(#SVGID_00000017500888207246467180000015155069620219685282_);fill:#2E2E2E;" d="M128.397,96.677
					c-21.788,0-39.451-14.22-39.451-31.761h1.344v-3.803h76.755v-2.598c0.525,2.068,0.801,4.208,0.801,6.401
					C167.848,82.457,150.185,96.677,128.397,96.677z"/>
				<path style="clip-path:url(#SVGID_00000017500888207246467180000015155069620219685282_);fill:#2F2F2F;" d="M128.397,95.952
					c-21.291,0-38.55-13.895-38.55-31.036c0-2.143,0.27-4.235,0.783-6.255v2.452h75.533v-2.452c0.514,2.02,0.783,4.112,0.783,6.255
					C166.947,82.057,149.688,95.952,128.397,95.952z"/>
				<path style="clip-path:url(#SVGID_00000017500888207246467180000015155069620219685282_);fill:#303030;" d="M128.397,95.227
					c-20.793,0-37.649-13.571-37.649-30.311c0-2.092,0.263-4.135,0.765-6.109v2.306h73.768v-2.306
					c0.501,1.973,0.765,4.016,0.765,6.109C166.046,81.656,149.19,95.227,128.397,95.227z"/>
				<path style="clip-path:url(#SVGID_00000017500888207246467180000015155069620219685282_);fill:#313131;" d="M128.397,94.502
					c-20.296,0-36.748-13.246-36.748-29.586c0-2.042,0.257-4.037,0.747-5.962v2.16h72.003v-2.16c0.49,1.926,0.747,3.92,0.747,5.962
					C165.145,81.256,148.693,94.502,128.397,94.502z"/>
				<path style="clip-path:url(#SVGID_00000017500888207246467180000015155069620219685282_);fill:#323232;" d="M128.397,93.776
					c-19.798,0-35.848-12.921-35.848-28.86c0-1.992,0.251-3.938,0.728-5.816v2.014h70.238V59.1c0.477,1.879,0.728,3.824,0.728,5.816
					C164.245,80.855,148.195,93.776,128.397,93.776z"/>
				<path style="clip-path:url(#SVGID_00000017500888207246467180000015155069620219685282_);fill:#333333;" d="M128.397,93.051
					c-19.3,0-34.947-12.597-34.947-28.135c0-1.942,0.244-3.839,0.71-5.67v1.867h68.473v-1.867c0.465,1.832,0.71,3.728,0.71,5.67
					C163.344,80.455,147.698,93.051,128.397,93.051z"/>
				<path style="clip-path:url(#SVGID_00000017500888207246467180000015155069620219685282_);fill:#343434;" d="M128.397,92.326
					c-18.803,0-34.046-12.272-34.046-27.41c0-3.785,0.953-7.39,2.675-10.669v6.866h62.741v-6.866
					c1.723,3.279,2.676,6.885,2.676,10.669C162.443,80.054,147.2,92.326,128.397,92.326z"/>
				<path style="clip-path:url(#SVGID_00000017500888207246467180000015155069620219685282_);fill:#353535;" d="M128.397,91.601
					c-18.306,0-33.145-11.947-33.145-26.685c0-3.684,0.928-7.194,2.605-10.387v6.584h61.081v-6.584
					c1.677,3.192,2.605,6.702,2.605,10.387C161.542,79.654,146.703,91.601,128.397,91.601z"/>
				<path style="clip-path:url(#SVGID_00000017500888207246467180000015155069620219685282_);fill:#363636;" d="M128.397,90.876
					c-17.808,0-32.244-11.622-32.244-25.959c0-3.584,0.902-6.999,2.534-10.105v6.302h59.421v-6.302
					c1.632,3.106,2.534,6.52,2.534,10.105C160.641,79.253,146.205,90.876,128.397,90.876z"/>
				<path style="clip-path:url(#SVGID_00000017500888207246467180000015155069620219685282_);fill:#373737;" d="M128.397,90.15
					c-17.311,0-31.343-11.298-31.343-25.234c0-3.484,0.877-6.803,2.463-9.822v6.019h57.761v-6.019
					c1.586,3.019,2.463,6.338,2.463,9.822C159.741,78.853,145.708,90.15,128.397,90.15z"/>
				<path style="clip-path:url(#SVGID_00000017500888207246467180000015155069620219685282_);fill:#383838;" d="M128.397,89.425
					c-16.813,0-30.443-10.973-30.443-24.509c0-3.384,0.852-6.608,2.392-9.54v5.737h56.101v-5.737
					c1.541,2.932,2.392,6.156,2.392,9.54C158.84,78.452,145.21,89.425,128.397,89.425z"/>
				<path style="clip-path:url(#SVGID_00000017500888207246467180000015155069620219685282_);fill:#393939;" d="M128.397,88.7
					c-16.315,0-29.542-10.648-29.542-23.784c0-3.284,0.827-6.412,2.322-9.258v5.455h54.441v-5.455
					c1.495,2.845,2.322,5.974,2.322,9.258C157.939,78.051,144.713,88.7,128.397,88.7z"/>
				<path style="clip-path:url(#SVGID_00000017500888207246467180000015155069620219685282_);fill:#3A3A3A;" d="M128.397,87.975
					c-15.818,0-28.641-10.324-28.641-23.059c0-3.184,0.801-6.217,2.251-8.975v5.173h52.781v-5.173
					c1.449,2.759,2.251,5.792,2.251,8.975C157.038,77.651,144.215,87.975,128.397,87.975z"/>
				<path style="clip-path:url(#SVGID_00000017500888207246467180000015155069620219685282_);fill:#3B3B3B;" d="M128.397,87.249
					c-15.321,0-27.74-9.999-27.74-22.333c0-3.084,0.776-6.021,2.18-8.693v4.89h51.12v-4.89c1.404,2.672,2.18,5.61,2.18,8.693
					C156.137,77.25,143.718,87.249,128.397,87.249z"/>
				<path style="clip-path:url(#SVGID_00000017500888207246467180000015155069620219685282_);fill:#3C3C3C;" d="M128.397,86.524
					c-14.823,0-26.839-9.674-26.839-21.608c0-2.984,0.751-5.826,2.109-8.411v4.608h49.46v-4.608
					c1.358,2.585,2.109,5.427,2.109,8.411C155.237,76.85,143.22,86.524,128.397,86.524z"/>
				<path style="clip-path:url(#SVGID_00000017500888207246467180000015155069620219685282_);fill:#3D3D3D;" d="M128.397,85.799
					c-14.326,0-25.939-9.35-25.939-20.883c0-2.883,0.726-5.63,2.038-8.128v4.326h47.8v-4.326c1.313,2.498,2.038,5.245,2.038,8.128
					C154.336,76.449,142.723,85.799,128.397,85.799z"/>
				<path style="clip-path:url(#SVGID_00000017500888207246467180000015155069620219685282_);fill:#3E3E3E;" d="M128.397,85.074
					c-13.828,0-25.038-9.025-25.038-20.158c0-2.783,0.701-5.435,1.968-7.846v4.043h46.14V57.07c1.267,2.412,1.968,5.063,1.968,7.846
					C153.435,76.049,142.225,85.074,128.397,85.074z"/>
				<path style="clip-path:url(#SVGID_00000017500888207246467180000015155069620219685282_);fill:#404040;" d="M128.397,84.348
					c-13.33,0-24.137-8.7-24.137-19.432c0-2.683,0.675-5.239,1.897-7.564v3.761h44.48v-3.761c1.221,2.325,1.897,4.881,1.897,7.564
					C152.534,75.648,141.728,84.348,128.397,84.348z"/>
				<path style="clip-path:url(#SVGID_00000017500888207246467180000015155069620219685282_);fill:#414141;" d="M128.397,83.623
					c-12.833,0-23.236-8.375-23.236-18.707c0-2.583,0.65-5.044,1.826-7.282v3.479h42.82v-3.479c1.176,2.238,1.826,4.699,1.826,7.282
					C151.633,75.248,141.23,83.623,128.397,83.623z"/>
				<path style="clip-path:url(#SVGID_00000017500888207246467180000015155069620219685282_);fill:#424242;" d="M128.397,82.898
					c-12.336,0-22.335-8.051-22.335-17.982c0-2.483,0.625-4.848,1.755-6.999v3.197h41.16v-3.197c1.13,2.151,1.755,4.517,1.755,6.999
					C150.732,74.847,140.733,82.898,128.397,82.898z"/>
				<path style="clip-path:url(#SVGID_00000017500888207246467180000015155069620219685282_);fill:#434343;" d="M128.397,82.173
					c-11.838,0-21.435-7.726-21.435-17.257c0-2.383,0.6-4.653,1.684-6.717v2.914h39.5v-2.914c1.085,2.065,1.684,4.334,1.684,6.717
					C149.832,74.447,140.235,82.173,128.397,82.173z"/>
				<path style="clip-path:url(#SVGID_00000017500888207246467180000015155069620219685282_);fill:#444444;" d="M128.397,81.448
					c-11.34,0-20.534-7.401-20.534-16.531c0-2.283,0.575-4.457,1.614-6.435v2.632h37.84v-2.632c1.039,1.978,1.614,4.152,1.614,6.435
					C148.931,74.046,139.738,81.448,128.397,81.448z"/>
				<path style="clip-path:url(#SVGID_00000017500888207246467180000015155069620219685282_);fill:#454545;" d="M128.397,80.722
					c-10.843,0-19.633-7.077-19.633-15.806c0-2.182,0.549-4.262,1.543-6.153v2.35h36.18v-2.35c0.993,1.891,1.543,3.97,1.543,6.153
					C148.03,73.646,139.24,80.722,128.397,80.722z"/>
				<path style="clip-path:url(#SVGID_00000017500888207246467180000015155069620219685282_);fill:#464646;" d="M128.397,79.997
					c-10.346,0-18.732-6.752-18.732-15.081c0-4.165,2.097-7.935,5.487-10.664v6.861h26.491v-6.861
					c3.39,2.729,5.486,6.499,5.486,10.664C147.129,73.245,138.743,79.997,128.397,79.997z"/>
				<path style="clip-path:url(#SVGID_00000017500888207246467180000015155069620219685282_);fill:#474747;" d="M128.397,79.272
					c-9.848,0-17.831-6.427-17.831-14.356c0-3.964,1.996-7.553,5.223-10.151v6.348h25.217v-6.348
					c3.227,2.598,5.223,6.187,5.223,10.151C146.229,72.844,138.245,79.272,128.397,79.272z"/>
				<path style="clip-path:url(#SVGID_00000017500888207246467180000015155069620219685282_);fill:#484848;" d="M128.397,78.547
					c-9.35,0-16.931-6.103-16.931-13.631c0-3.764,1.895-7.172,4.959-9.638v5.835h23.943v-5.835c3.064,2.467,4.959,5.874,4.959,9.638
					C145.328,72.444,137.748,78.547,128.397,78.547z"/>
				<path style="clip-path:url(#SVGID_00000017500888207246467180000015155069620219685282_);fill:#494949;" d="M128.397,77.821
					c-8.853,0-16.03-5.778-16.03-12.905c0-3.564,1.794-6.79,4.695-9.125v5.323h22.669v-5.323c2.901,2.335,4.695,5.562,4.695,9.125
					C144.427,72.044,137.25,77.821,128.397,77.821z"/>
				<path style="clip-path:url(#SVGID_00000017500888207246467180000015155069620219685282_);fill:#4A4A4A;" d="M128.397,77.096
					c-8.355,0-15.129-5.453-15.129-12.18c0-3.363,1.693-6.409,4.431-8.613v4.81h21.395v-4.81c2.738,2.204,4.431,5.249,4.431,8.613
					C143.526,71.643,136.753,77.096,128.397,77.096z"/>
				<path style="clip-path:url(#SVGID_00000017500888207246467180000015155069620219685282_);fill:#4B4B4B;" d="M128.397,76.371
					c-7.858,0-14.228-5.129-14.228-11.455c0-3.163,1.593-6.027,4.167-8.1v4.297h20.121v-4.297c2.575,2.073,4.167,4.937,4.167,8.1
					C142.625,71.242,136.255,76.371,128.397,76.371z"/>
				
					<ellipse style="clip-path:url(#SVGID_00000017500888207246467180000015155069620219685282_);fill:#4C4C4C;" cx="128.397" cy="64.916" rx="13.327" ry="10.73"/>
				
					<ellipse style="clip-path:url(#SVGID_00000017500888207246467180000015155069620219685282_);fill:#4D4D4D;" cx="128.397" cy="64.916" rx="12.426" ry="10.004"/>
				
					<ellipse style="clip-path:url(#SVGID_00000017500888207246467180000015155069620219685282_);fill:#4E4E4E;" cx="128.397" cy="64.916" rx="11.526" ry="9.279"/>
				
					<ellipse style="clip-path:url(#SVGID_00000017500888207246467180000015155069620219685282_);fill:#4F4F4F;" cx="128.397" cy="64.916" rx="10.625" ry="8.554"/>
				
					<ellipse style="clip-path:url(#SVGID_00000017500888207246467180000015155069620219685282_);fill:#505050;" cx="128.397" cy="64.916" rx="9.724" ry="7.829"/>
				
					<ellipse style="clip-path:url(#SVGID_00000017500888207246467180000015155069620219685282_);fill:#515151;" cx="128.397" cy="64.916" rx="8.823" ry="7.103"/>
			</g>
		</g>
		<path style="fill:#7D7D7D;" d="M95.537,67.211c-0.163-0.545,0.057-0.954,0.203-1.148c0.249-0.335,0.627-0.526,1.037-0.526
			l0.112,0.005c0,0,66.022,4.126,65.412,4.078l-67.079-5.328l-0.112-0.005c-0.409,0-0.787,0.191-1.037,0.526
			c-0.146,0.194-0.365,0.604-0.203,1.148l7.093,23.814C101.127,90.323,95.537,67.211,95.537,67.211z"/>
		<g>
			<polygon style="fill:#FF2D00;" points="88.162,90.832 77.245,82.749 86.412,80.832 			"/>
			<polygon style="fill:#BF0000;" points="88.162,90.832 83.287,84.374 77.245,82.749 			"/>
		</g>
		<polygon style="fill:#FFFFFF;" points="185.412,81.249 42.328,104.665 28.412,157.915 43.828,106.665 		"/>
		<polygon style="fill:#BF0000;" points="28.412,157.915 223.912,171.082 185.412,81.186 226.912,173.249 		"/>
		<polygon style="fill:#BF0000;" points="107.912,202.249 156.287,193.624 157.245,194.915 		"/>
		<g>
			<polygon points="79.788,98.861 50.382,96.171 62.636,85.856 			"/>
			<polygon points="50.382,96.171 61.975,93.059 79.788,98.861 			"/>
			<polygon points="62.636,85.856 61.975,93.059 50.382,96.171 			"/>
			<polygon points="60.68,93.294 79.788,98.861 61.486,92.135 			"/>
		</g>
		<g>
			<polygon style="fill:#FF2D00;" points="78.011,91.154 48.745,87.22 61.425,77.434 			"/>
			<polygon style="fill:#BF0000;" points="48.745,87.22 60.46,84.602 78.011,91.154 			"/>
			<polygon style="fill:#FF9976;" points="61.425,77.434 60.46,84.602 48.745,87.22 			"/>
			<polygon style="fill:#FF9976;" points="59.156,84.782 78.011,91.154 59.078,83.499 			"/>
		</g>
		<path d="M70.033,179.603l3.864,8.663c0.042,0.093,0.097,0.176,0.145,0.265l43.765-14.872L70.033,179.603z"/>
		<g>
			<polygon style="fill:#FF2D00;" points="115.912,172.332 60.495,173.41 54.245,186.332 			"/>
			<polygon style="fill:#BF0000;" points="115.912,172.332 63.578,178.749 54.245,186.332 			"/>
			<polygon style="fill:#FF9976;" points="60.495,173.41 63.578,178.749 54.245,186.332 			"/>
			<polygon style="fill:#FF9976;" points="61.787,178.874 115.912,172.332 61.328,179.915 			"/>
		</g>
		<path style="fill:#525252;" d="M77.536,186.525c-0.077,0.01-0.153,0.014-0.229,0.014c0,0,0,0,0,0
			c-0.764,0-1.459-0.451-1.771-1.149l0.25,1.5c0.312,0.698,1.006,1.149,1.77,1.149c0,0,0.001,0,0.001,0
			c0.076,0,0.152-0.004,0.229-0.014l113.107-13.42C191.513,174.532,77.536,186.525,77.536,186.525z"/>
	</g>
</g>
<g id="Text">
	<g>
		<path style="opacity:0.7;fill:#281100;" d="M78.97,100.158c-2.859,0-5.303,0.394-7.332,1.181c-2.029,0.787-3.65,1.967-4.861,3.54
			c-1.212,1.574-2.09,3.436-2.635,5.585c-0.546,2.15-0.818,4.688-0.818,7.613v20.346c0,5.94,1.211,10.451,3.633,13.531
			c2.422,3.081,6.427,4.621,12.014,4.621c2.836,0,5.27-0.41,7.3-1.23c2.029-0.819,3.65-2.033,4.861-3.64
			c1.211-1.607,2.095-3.502,2.651-5.686c0.557-2.183,0.835-4.715,0.835-7.597v-20.346c0-5.873-1.217-10.327-3.65-13.364
			C88.534,101.676,84.535,100.158,78.97,100.158z M84.568,140.784c0,1.042-0.039,1.939-0.115,2.692
			c-0.077,0.754-0.229,1.508-0.458,2.261c-0.229,0.754-0.546,1.363-0.95,1.828c-0.404,0.466-0.944,0.843-1.62,1.131
			c-0.677,0.288-1.495,0.432-2.455,0.432c-0.96,0-1.784-0.144-2.472-0.432c-0.687-0.288-1.228-0.665-1.62-1.131
			c-0.393-0.465-0.704-1.074-0.933-1.828c-0.229-0.753-0.382-1.507-0.458-2.261c-0.077-0.753-0.115-1.65-0.115-2.692v-25.034
			c0-1.329,0.065-2.438,0.196-3.324c0.131-0.886,0.382-1.723,0.753-2.51c0.371-0.787,0.944-1.374,1.719-1.762
			c0.774-0.388,1.751-0.582,2.93-0.582c1.178,0,2.149,0.194,2.913,0.582c0.764,0.388,1.337,0.975,1.719,1.762
			c0.381,0.787,0.638,1.624,0.769,2.51c0.131,0.887,0.197,1.995,0.197,3.324V140.784z M99.142,155.91h8.602
			c0.354,0,0.642-0.287,0.642-0.642v-23.783c0-0.355,0.287-0.642,0.642-0.642h8.635c0.354,0,0.642-0.287,0.642-0.642v-5.798
			c0-0.354-0.287-0.642-0.642-0.642h-8.635c-0.354,0-0.642-0.287-0.642-0.642V108.38c0-0.354,0.287-0.642,0.642-0.642h11.123
			c0.354,0,0.642-0.287,0.642-0.642v-5.665c0-0.354-0.287-0.642-0.642-0.642H99.142c-0.354,0-0.642,0.287-0.642,0.642v53.837
			C98.5,155.622,98.787,155.91,99.142,155.91z M123.286,155.91h8.602c0.354,0,0.642-0.287,0.642-0.642v-23.783
			c0-0.355,0.287-0.642,0.642-0.642h8.635c0.354,0,0.642-0.287,0.642-0.642v-5.798c0-0.354-0.287-0.642-0.642-0.642h-8.635
			c-0.355,0-0.642-0.287-0.642-0.642V108.38c0-0.354,0.287-0.642,0.642-0.642h11.123c0.354,0,0.642-0.287,0.642-0.642v-5.665
			c0-0.354-0.287-0.642-0.642-0.642h-21.008c-0.354,0-0.642,0.287-0.642,0.642v53.837
			C122.644,155.622,122.932,155.91,123.286,155.91z M157.317,130.777h8.864c0.354,0,0.642-0.287,0.642-0.642v-5.797
			c0-0.354-0.287-0.642-0.642-0.642h-8.864c-0.354,0-0.642-0.287-0.642-0.642v-14.542c0-0.354,0.287-0.642,0.642-0.642h11.549
			c0.354,0,0.642-0.287,0.642-0.642v-5.798c0-0.354-0.287-0.642-0.642-0.642h-21.434c-0.354,0-0.642,0.287-0.642,0.642v53.837
			c0,0.354,0.287,0.642,0.642,0.642h21.598c0.354,0,0.642-0.287,0.642-0.642v-5.665c0-0.354-0.287-0.642-0.642-0.642h-11.712
			c-0.354,0-0.642-0.287-0.642-0.642v-16.901C156.675,131.064,156.962,130.777,157.317,130.777z M195.302,129.27
			c-0.084-0.301,0.069-0.611,0.351-0.747c2.078-1.005,3.587-2.526,4.529-4.562c1.015-2.194,1.522-5.021,1.522-8.478
			c0-2.771-0.377-5.114-1.129-7.031s-1.888-3.436-3.404-4.555c-1.517-1.119-3.301-1.917-5.352-2.394
			c-2.051-0.477-4.506-0.715-7.365-0.715h-11.797c-0.354,0-0.642,0.287-0.642,0.642v53.837c0,0.354,0.287,0.642,0.642,0.642h8.602
			c0.354,0,0.642-0.287,0.642-0.642v-23.882c0-0.355,0.287-0.642,0.642-0.642h3.247c0.293,0,0.548,0.198,0.622,0.482l6.233,24.203
			c0.073,0.283,0.329,0.482,0.622,0.482h8.577c0.424,0,0.732-0.404,0.618-0.813L195.302,129.27z M190.526,122.432
			c-1.233,1.264-3.312,1.895-6.236,1.895h-1.748c-0.355,0-0.642-0.287-0.642-0.642v-15.339c0-0.354,0.287-0.642,0.642-0.642h2.337
			c2.858,0,4.822,0.638,5.892,1.911c1.069,1.275,1.604,3.386,1.604,6.334C192.375,119.007,191.758,121.168,190.526,122.432z"/>
		<path style="fill:#FFFFFF;" d="M76.637,98.366c-2.859,0-5.303,0.394-7.332,1.181c-2.029,0.787-3.65,1.967-4.861,3.54
			c-1.211,1.574-2.09,3.436-2.635,5.585c-0.546,2.15-0.818,4.688-0.818,7.613v20.346c0,5.941,1.211,10.451,3.633,13.531
			c2.422,3.081,6.427,4.621,12.014,4.621c2.836,0,5.27-0.41,7.3-1.23c2.029-0.819,3.65-2.033,4.861-3.64
			c1.212-1.607,2.095-3.502,2.651-5.686c0.557-2.183,0.835-4.715,0.835-7.597v-20.346c0-5.873-1.217-10.327-3.65-13.364
			C86.201,99.884,82.202,98.366,76.637,98.366z M82.235,138.992c0,1.042-0.039,1.939-0.115,2.692
			c-0.077,0.754-0.229,1.508-0.458,2.261c-0.229,0.754-0.546,1.363-0.95,1.828c-0.404,0.466-0.944,0.843-1.62,1.131
			c-0.677,0.288-1.495,0.432-2.455,0.432c-0.961,0-1.784-0.143-2.472-0.432c-0.687-0.288-1.227-0.665-1.62-1.131
			c-0.393-0.465-0.704-1.074-0.933-1.828c-0.229-0.753-0.382-1.507-0.458-2.261c-0.077-0.753-0.115-1.65-0.115-2.692v-25.034
			c0-1.329,0.066-2.438,0.196-3.324c0.131-0.886,0.382-1.723,0.753-2.51c0.371-0.787,0.944-1.374,1.719-1.762
			c0.774-0.388,1.751-0.582,2.93-0.582c1.178,0,2.149,0.194,2.913,0.582c0.764,0.388,1.337,0.975,1.719,1.762
			c0.381,0.787,0.638,1.624,0.769,2.51c0.131,0.887,0.197,1.995,0.197,3.324V138.992z M96.808,154.118h8.602
			c0.354,0,0.642-0.287,0.642-0.642v-23.783c0-0.354,0.287-0.642,0.642-0.642h8.635c0.354,0,0.642-0.287,0.642-0.642v-5.798
			c0-0.354-0.287-0.642-0.642-0.642h-8.635c-0.354,0-0.642-0.287-0.642-0.642v-14.741c0-0.354,0.287-0.642,0.642-0.642h11.123
			c0.354,0,0.642-0.287,0.642-0.642V99.64c0-0.354-0.287-0.642-0.642-0.642H96.808c-0.354,0-0.642,0.287-0.642,0.642v53.837
			C96.166,153.831,96.454,154.118,96.808,154.118z M120.953,154.118h8.602c0.354,0,0.642-0.287,0.642-0.642v-23.783
			c0-0.354,0.287-0.642,0.642-0.642h8.635c0.354,0,0.642-0.287,0.642-0.642v-5.798c0-0.354-0.287-0.642-0.642-0.642h-8.635
			c-0.354,0-0.642-0.287-0.642-0.642v-14.741c0-0.354,0.287-0.642,0.642-0.642h11.123c0.355,0,0.642-0.287,0.642-0.642V99.64
			c0-0.354-0.287-0.642-0.642-0.642h-21.008c-0.354,0-0.642,0.287-0.642,0.642v53.837
			C120.311,153.831,120.598,154.118,120.953,154.118z M154.984,128.985h8.864c0.354,0,0.642-0.287,0.642-0.642v-5.798
			c0-0.354-0.287-0.642-0.642-0.642h-8.864c-0.354,0-0.642-0.287-0.642-0.642v-14.542c0-0.354,0.287-0.642,0.642-0.642h11.548
			c0.355,0,0.642-0.287,0.642-0.642V99.64c0-0.354-0.287-0.642-0.642-0.642h-21.434c-0.354,0-0.642,0.287-0.642,0.642v53.837
			c0,0.354,0.287,0.642,0.642,0.642h21.598c0.354,0,0.642-0.287,0.642-0.642v-5.665c0-0.354-0.287-0.642-0.642-0.642h-11.712
			c-0.354,0-0.642-0.287-0.642-0.642v-16.901C154.342,129.273,154.629,128.985,154.984,128.985z M192.969,127.479
			c-0.083-0.301,0.069-0.611,0.351-0.747c2.078-1.005,3.588-2.526,4.529-4.562c1.015-2.194,1.522-5.021,1.522-8.478
			c0-2.771-0.376-5.114-1.129-7.031c-0.753-1.917-1.888-3.435-3.404-4.555c-1.517-1.119-3.301-1.917-5.352-2.394
			c-2.051-0.477-4.506-0.715-7.365-0.715h-11.797c-0.354,0-0.642,0.287-0.642,0.642v53.837c0,0.354,0.287,0.642,0.642,0.642h8.602
			c0.354,0,0.642-0.287,0.642-0.642v-23.882c0-0.354,0.287-0.642,0.642-0.642h3.247c0.293,0,0.548,0.198,0.621,0.482l6.233,24.203
			c0.073,0.284,0.329,0.482,0.622,0.482h8.577c0.424,0,0.732-0.404,0.618-0.813L192.969,127.479z M188.192,120.64
			c-1.233,1.264-3.312,1.894-6.236,1.894h-1.748c-0.354,0-0.642-0.287-0.642-0.642v-15.339c0-0.354,0.287-0.642,0.642-0.642h2.337
			c2.858,0,4.822,0.638,5.892,1.911c1.069,1.275,1.604,3.386,1.604,6.334C190.042,117.216,189.425,119.377,188.192,120.64z"/>
		<path d="M113.644,94.945c-1.141,0-2.067-0.256-2.752-0.762c-0.33-0.243-0.6-0.538-0.808-0.883
			c-0.672,0.947-1.27,1.431-1.883,1.542c-0.045,0.008-0.296,0.032-0.601,0.032c-0.815,0-1.122-0.154-1.281-0.271
			c-0.195-0.142-0.32-0.346-0.351-0.575c-0.22-1.643,1.495-5.482,4.531-11.561l0.05-0.1c0.442-0.886,0.791-1.585,0.995-2.032
			c0.311-0.696,0.25-0.874,0.23-0.933c-0.04-0.113-0.05-0.238-0.031-0.358c0.234-1.515,2.954-5.223,5.143-5.619
			c0.084-0.015,0.204-0.025,0.351-0.025c0.967,0,2.189,0.373,2.452,1.425c0.161,0.496,0.001,0.817-0.163,0.993
			c-0.164,0.174-0.38,0.266-0.627,0.266c-0.119,0-0.221-0.021-0.292-0.038c-2.354,0.63-7.101,9.648-9.154,14.646
			c0.58-0.779,0.973-1.207,1.501-1.234c0.043-0.013,0.149-0.022,0.251-0.022c0.304,0,0.585,0.088,0.809,0.254
			c0.503,0.374,0.574,0.974,0.625,1.412c0.013,0.112,0.022,0.21,0.043,0.293c0.208,0.934,0.813,1.381,1.853,1.381
			c0.242,0,0.505-0.026,0.784-0.077c2.688-0.466,4.869-2.043,5.43-3.925c0.493-1.653-0.457-2.983-1.341-3.809
			c-0.545-0.521-1.226-1.007-1.884-1.476c-1.25-0.892-2.229-1.589-2.353-2.494c-0.115-1.178,1.308-2.158,2.12-2.307
			c1.889-0.342,6.838-3.052,8.198-5.014c0.594-0.845,0.651-1.437,0.521-1.688c-0.163-0.312-0.785-0.498-1.665-0.498
			c-2.533,0-7.455,1.483-11.524,3.449c-4.942,2.389-7.924,5.037-8.182,7.266c-0.07,0.557,0.11,0.768,1.368,1.016
			c0.29,0.057,0.54,0.108,0.742,0.184c0.638,0.183,0.826,0.677,0.782,1.04c-0.062,0.519-0.542,0.875-1.223,0.906
			c-0.083,0.012-0.212,0.019-0.347,0.019c-0.853,0-2.154-0.31-3.019-1.185c-0.636-0.646-0.915-1.475-0.808-2.4l-0.022-0.14
			c-0.023-0.158-0.041-0.316-0.041-0.391c0.29-2.89,3.931-5.815,5.483-6.941c3.535-2.559,11.753-5.683,16.305-5.683
			c0.138,0,0.271,0.003,0.402,0.008c2.642,0.139,4.332,1.572,4.314,3.652c-0.076,4.448-6.196,7.001-8.975,7.932
			c2.138,1.073,4.143,2.469,4.705,4.557c0.45,1.67-0.09,3.562-1.604,5.622c-1.541,2.158-4.365,3.84-7.365,4.383
			C114.734,94.89,114.165,94.945,113.644,94.945z M128.509,90.689c-1.057,0-1.941-0.282-2.555-0.817
			c-0.791-0.688-1.51-2.055-0.439-4.665c1.066-2.575,6.378-8.24,9.548-8.24c0.131,0,0.258,0.01,0.381,0.028
			c0.682,0.112,1.206,0.499,1.477,1.089c0.455,0.989,0.115,2.325-0.423,3.211c-1.353,2.223-4.763,4.284-6.612,4.782
			c0,0-0.013,0.004-0.019,0.005c-0.123,0.031-0.246,0.047-0.364,0.047c-0.221,0-0.425-0.054-0.595-0.15
			c-0.179,0.375-0.323,0.742-0.425,1.093c-0.214,0.741-0.168,1.185-0.027,1.294c0.035,0.027,0.146,0.092,0.419,0.092
			c0.632-0.001,1.594-0.34,2.572-0.908c2.058-1.208,3.994-2.993,5.318-4.903c0.008-0.018,0.016-0.035,0.023-0.048
			c0.888-1.381,1.575-2.684,1.852-3.51c0.388-3.019,5.155-6.347,8.05-6.87c0.324-0.059,0.635-0.088,0.926-0.088
			c0.893,0,1.578,0.272,1.979,0.788c0.249,0.321,0.468,0.84,0.302,1.611c0.254-0.088,0.51-0.15,0.744-0.205l1.65-3.336
			c0.175-0.329,0.312-0.597,0.428-0.823l0.054-0.104c0.5-0.979,0.729-1.425,1.406-1.646c0.319-0.101,0.662-0.155,0.968-0.155
			c0.573,0,1.008,0.182,1.26,0.523c0.651,0.762-0.055,1.94-0.288,2.328c-0.117,0.265-0.339,0.448-0.501,0.582
			c-0.121,0.1-0.163,0.137-0.202,0.22l-0.907,1.739c0.627-0.186,1.3-0.367,2.146-0.497c0.04-0.008,0.186-0.031,0.354-0.031
			c0.76,0,0.975,0.447,1.032,0.64c0.244,0.828-0.755,1.249-1.292,1.475c-0.671,0.343-2.811,0.985-3.723,1.252
			c-0.149,0.287-0.29,0.547-0.415,0.776c-0.169,0.31-0.345,0.633-0.385,0.757l-0.151,0.34c-0.956,2.061-1.857,4.005-1.955,4.981
			c-0.107,0.658-0.002,0.94,0.032,0.981c-0.006-0.033,0.149-0.076,0.382-0.238c1.105-0.822,3.628-3.428,5.037-5.616
			c0.197-0.308,0.527-0.491,0.882-0.491c0.173,0,0.341,0.044,0.486,0.126c0.382,0.217,0.635,0.753,0.349,1.316
			c-0.678,1.356-2.851,4.148-4.744,5.853c-0.632,0.589-2.084,1.596-3.475,1.597h-0.001c-0.214,0-0.42-0.024-0.614-0.074
			c-0.712-0.178-1.249-0.697-1.511-1.464c-0.149-0.415-0.143-1.013,0.023-1.809c-0.166-0.016-0.322-0.075-0.457-0.174
			c-0.409-0.295-0.594-0.943-0.152-1.609c1.06-1.487,2.044-2.971,2.651-3.994c0.031-0.084,0.082-0.196,0.178-0.396
			c-0.221-0.07-0.415-0.2-0.559-0.381c-0.034-0.042-0.077-0.104-0.118-0.184c-0.053,0.046-0.106,0.092-0.162,0.138
			c-0.142,0.144-0.391,0.244-0.651,0.244c-0.248,0-0.48-0.089-0.654-0.251c-0.317-0.298-0.483-0.882,0.088-1.555
			c0.162-0.19,0.283-0.414,0.357-0.598c-0.821,0.232-2.155,0.951-3.122,1.61c-1.196,0.798-2.061,1.678-2.811,2.856
			c-0.333,0.518-0.376,0.802-0.35,0.889c0.018,0.06,0.127,0.163,0.378,0.271c0.322,0.133,0.667,0.257,1.006,0.38
			c1.353,0.485,2.727,0.979,3.087,2.209c0.259,0.884-0.097,1.939-1.089,3.228c-1.592,2.061-4.178,3.265-5.216,3.686
			c-0.538,0.211-1.316,0.46-1.997,0.46c-0.859,0-1.26-0.392-1.445-0.72c-0.388-0.479-0.225-1.298,0.516-2.301
			c0.418-0.495,1.103-1.039,1.899-1.52c0.192-0.093,0.342-0.128,0.49-0.128c0.321,0,0.614,0.173,0.762,0.451
			c0.237,0.443,0.057,1.014-0.409,1.299c-0.186,0.118-0.36,0.283-0.499,0.441c1.545-0.781,3.831-2.985,3.846-4.637
			c-0.054-0.159-0.54-0.41-1.443-0.735c-0.307-0.11-0.56-0.203-0.744-0.299c-0.213-0.105-0.461-0.239-0.699-0.416
			c-0.291,0.502-0.648,1.094-1.086,1.802c-0.017,0.027-0.049,0.066-0.079,0.099c-1.488,2.368-3.556,4.416-5.829,5.771
			C131.298,90.255,129.827,90.689,128.509,90.689z M134.555,79.698c-0.135,0.069-0.298,0.165-0.49,0.296
			c-1.169,0.748-2.589,2.145-3.727,3.666c0.9-0.551,2.036-1.442,2.964-2.36C133.873,80.76,134.345,80.12,134.555,79.698z"/>
		<path style="fill:#FFFFFF;" d="M117.534,78.495c3.273-0.882,9.781-3.523,9.854-7.836c0.016-1.789-1.488-3.024-3.833-3.147
			c-4.337-0.177-12.779,2.963-16.394,5.579c-1.168,0.848-5.002,3.823-5.277,6.541c0,0.06,0.017,0.187,0.035,0.313
			c0.014,0.096,0.03,0.19,0.032,0.205c-0.109,0.798,0.119,1.509,0.659,2.057c0.791,0.802,2.14,1.119,2.987,1.019
			c0.423-0.02,0.718-0.202,0.749-0.467c0.013-0.109-0.007-0.381-0.461-0.512c-0.181-0.067-0.404-0.111-0.663-0.162
			c-1.086-0.214-1.906-0.465-1.768-1.563c0.641-5.545,15.211-11.157,20.127-11.157h0.056c1.102,0.012,1.863,0.264,2.127,0.768
			c0.269,0.517,0.068,1.319-0.553,2.203c-1.446,2.087-6.511,4.857-8.52,5.221c-0.633,0.115-1.793,0.927-1.713,1.747
			c0.094,0.69,0.996,1.333,2.137,2.146c0.676,0.482,1.376,0.98,1.946,1.525c1.415,1.321,1.926,2.814,1.479,4.316
			c-0.614,2.06-2.952,3.777-5.819,4.274c-1.755,0.322-2.899-0.273-3.212-1.674c-0.026-0.104-0.04-0.228-0.055-0.357
			c-0.045-0.387-0.097-0.824-0.425-1.068c-0.194-0.144-0.453-0.188-0.738-0.135c-0.375,0.02-0.757,0.522-1.488,1.529
			c-0.445,0.6-0.86,0.798-0.941,0.768c-0.002-0.002-0.159-0.208,0.231-1.233c1.718-4.345,6.989-14.972,9.825-15.485
			c0.016,0.001,0.06,0.012,0.088,0.019c0.119,0.029,0.321,0.077,0.465-0.075c0.141-0.151,0.095-0.372,0.044-0.531
			c-0.252-1.01-1.845-1.094-2.229-1.028c-1.93,0.35-4.532,3.872-4.738,5.205c-0.006,0.04-0.002,0.081,0.011,0.119
			c0.05,0.148,0.144,0.422-0.248,1.301c-0.213,0.468-0.584,1.209-1.053,2.148c-2.391,4.786-4.706,9.599-4.482,11.271
			c0.009,0.065,0.042,0.16,0.149,0.237c0.339,0.247,1.42,0.165,1.499,0.15c0.735-0.133,1.466-1.117,2.071-2.119
			c0.162,0.656,0.5,1.177,1.006,1.55c0.597,0.44,1.431,0.664,2.455,0.664c0.492,0,1.029-0.052,1.604-0.155
			c2.877-0.521,5.58-2.126,7.051-4.187c1.42-1.933,1.933-3.681,1.524-5.196C122.528,81.026,120.019,79.616,117.534,78.495z
			 M141.751,79.625c-0.353-0.127-0.712-0.256-1.054-0.397c-0.372-0.161-0.587-0.353-0.658-0.585
			c-0.092-0.302,0.045-0.74,0.407-1.303c0.79-1.24,1.699-2.165,2.952-3.001c0.952-0.649,2.723-1.656,3.688-1.769
			c0.22-0.014,0.256,0.06,0.268,0.084c0.126,0.248-0.136,0.946-0.529,1.409c-0.433,0.51-0.208,0.79-0.128,0.864
			c0.178,0.166,0.481,0.151,0.646-0.013c0.568-0.468,0.949-0.955,1.161-1.48c0.438-0.963,0.247-1.529,0.01-1.834
			c-0.413-0.531-1.296-0.719-2.422-0.516c-2.688,0.486-7.291,3.695-7.665,6.536c-0.289,0.864-0.994,2.206-1.892,3.6
			c-0.008,0.013-0.008,0.025-0.015,0.038c-1.355,1.971-3.357,3.833-5.51,5.097c-1.558,0.906-2.985,1.218-3.55,0.778
			c-0.454-0.354-0.33-1.191-0.146-1.829c0.752-2.571,3.669-5.999,5.782-7.35c0.694-0.473,1.165-0.607,1.311-0.532
			c0.061,0.03,0.072,0.152,0.075,0.235c0.049,0.599-0.854,1.745-1.516,2.371c-1.262,1.249-3.204,2.716-4.264,3.008
			c-0.4,0.099-0.525,0.365-0.47,0.585c0.063,0.253,0.377,0.464,0.83,0.348c0.002,0,0.003,0,0.005-0.001
			c1.727-0.466,5.046-2.474,6.316-4.56c0.454-0.747,0.772-1.925,0.396-2.742c-0.203-0.441-0.583-0.719-1.1-0.804
			c-2.737-0.436-8.303,5.283-9.39,7.907c-0.957,2.336-0.362,3.519,0.305,4.099c0.536,0.467,1.321,0.694,2.227,0.694
			c1.188,0,2.582-0.393,3.89-1.156c2.223-1.325,4.259-3.361,5.688-5.65c0.016-0.02,0.034-0.03,0.049-0.052
			c0.607-0.981,1.057-1.737,1.389-2.338c0.282,0.355,0.679,0.587,1.049,0.771c0.173,0.089,0.411,0.174,0.685,0.272
			c0.708,0.255,1.779,0.641,1.774,1.21c-0.017,1.896-2.512,4.304-4.217,5.126c-0.604,0.273-0.874,0.214-0.934,0.146
			c-0.068-0.08-0.03-0.331,0.174-0.639c0.174-0.264,0.496-0.631,0.869-0.868c0.269-0.164,0.327-0.452,0.228-0.637
			c-0.079-0.149-0.279-0.258-0.553-0.13c-0.741,0.446-1.393,0.96-1.755,1.388c-0.338,0.458-0.847,1.299-0.483,1.759
			c0.194,0.344,0.572,0.465,1.01,0.465c0.601,0,1.313-0.229,1.809-0.423c1-0.406,3.49-1.563,5.008-3.527
			c0.887-1.152,1.216-2.063,1.005-2.782C144.22,80.51,143.02,80.081,141.751,79.625z M150.934,76.53l0.13-0.284
			c0.054-0.168,0.216-0.467,0.422-0.844c0.15-0.275,0.324-0.597,0.506-0.957c1.454-0.421,3.297-0.998,3.876-1.293
			c0.694-0.292,1.104-0.54,1.006-0.871c-0.109-0.366-0.717-0.279-0.831-0.257c-0.991,0.152-1.716,0.371-2.484,0.604
			c-0.239,0.072-0.48,0.145-0.728,0.215l1.444-2.766c0.088-0.188,0.202-0.283,0.333-0.392c0.139-0.115,0.297-0.245,0.393-0.456
			c0.507-0.847,0.606-1.432,0.313-1.775c-0.294-0.399-1.071-0.376-1.67-0.188c-0.48,0.156-0.64,0.469-1.116,1.398
			c-0.128,0.25-0.282,0.552-0.478,0.921l-1.723,3.484c-0.039,0.018-0.079,0.044-0.116,0.084l-0.048,0.011
			c-0.699,0.16-1.569,0.36-1.885,1.079c-0.177,0.41-0.044,0.673,0.052,0.792c0.157,0.197,0.425,0.286,0.704,0.238
			c0.072-0.013,0.165-0.03,0.275-0.055c-0.378,0.756-0.497,0.997-0.532,1.114c-0.612,1.038-1.614,2.55-2.691,4.062
			c-0.268,0.402-0.187,0.771,0.031,0.929c0.187,0.137,0.493,0.122,0.756-0.216c0.074-0.098,0.144-0.191,0.21-0.281
			c-0.322,1.017-0.567,2.128-0.354,2.721c0.208,0.608,0.609,1.004,1.161,1.142c0.158,0.04,0.322,0.059,0.491,0.059
			c1.138-0.001,2.455-0.829,3.141-1.468c1.854-1.669,3.974-4.391,4.632-5.707c0.154-0.304,0.03-0.554-0.151-0.656
			c-0.206-0.117-0.523-0.073-0.699,0.201c-1.439,2.236-4.028,4.905-5.171,5.756c-0.4,0.279-0.75,0.367-0.954,0.235
			c-0.269-0.169-0.362-0.714-0.243-1.438C149.042,80.611,149.918,78.719,150.934,76.53z"/>
	</g>
</g>
</svg>
